{"title":"The Heat 2013 TS x264-THC","uid":8656287,"size":1358718485,"categoryP":"video","categoryS":"movies","magnet":"?xt=urn:btih:2ad7fe574257e308784b9870d06dd94f88488dd3&amp;dn=The+Heat+2013+TS+x264-THC&amp;tr=udp%3A%2F%2Ftracker.openbittorrent.com%3A80&amp;tr=udp%3A%2F%2Fopen.demonii.com%3A1337&amp;tr=udp%3A%2F%2Ftracker.coppersurfer.tk%3A6969&amp;tr=udp%3A%2F%2Fexodus.desync.com%3A6969","seeders":1,"leechers":0,"uploader":"HeroMaster","files":-1,"time":1373223388,"description":":::::: THC PRESENTS ::::::\n\n &lt;a href=&quot;\nhttp://i.imgur.com/BHJxxej.jpg&quot; rel=&quot;nofollow&quot; target=&quot;_NEW&quot;&gt;\nhttp://i.imgur.com/BHJxxej.jpg&lt;/a&gt;\n\n\nThe Heat 2013 TS x264-THC\n\n\n::Information::\n\n\nSource: A Very Good Friend...Thanks\nAudio: A fried...THANKS &lt;a href=&quot;\nhttp://www.imdb.com/title/tt2404463/&quot; rel=&quot;nofollow&quot; target=&quot;_NEW&quot;&gt;\nhttp://www.imdb.com/title/tt2404463/&lt;/a&gt;\n\n\n::General Info::\n\n\nFormat: MPEG-4\nFormat profile: Base Media\nCodec ID: isom\nFile size: 1.24 GiB\nDuration: 1h 49mn\nOverall bit rate: 1 615 Kbps\nEncoded date: UTC 2013-07-07 10:39:11\nTagged date: UTC 2013-07-07 10:39:11\n\n\n::Video::\n\n\nID: 1\nFormat: AVC\nFormat/Info: Advanced Video Codec\nFormat profile: &lt;a class=&quot;__cf_email__&quot; href=&quot;/cdn-cgi/l/email-protection&quot; data-cfemail=&quot;95ddfcf2fdd5d9a6bba5&quot;&gt;[email&amp;#160;protected]&lt;/a&gt;&lt;script cf-hash='f9e31' type=&quot;text/javascript&quot;&gt;\n/* &lt;![CDATA[ */!function(){try{var t=&quot;currentScript&quot;in document?document.currentScript:function(){for(var t=document.getElementsByTagName(&quot;script&quot;),e=t.length;e--;)if(t[e].getAttribute(&quot;cf-hash&quot;))return t[e]}();if(t&amp;&amp;t.previousSibling){var e,r,n,i,c=t.previousSibling,a=c.getAttribute(&quot;data-cfemail&quot;);if(a){for(e=&quot;&quot;,r=parseInt(a.substr(0,2),16),n=2;a.length-n;n+=2)i=parseInt(a.substr(n,2),16)^r,e+=String.fromCharCode(i);e=document.createTextNode(e),c.parentNode.replaceChild(e,c)}}}catch(u){}}();/* ]]&gt; */&lt;/script&gt;\nFormat settings, CABAC: Yes\nFormat settings, ReFrames: 5 frames\nFormat settings, GOP: M=1, N=32\nCodec ID: avc1\nCodec ID/Info: Advanced Video Coding\nDuration: 1h 49mn\nBit rate mode: Variable\nBit rate: 1 421 Kbps\nMaximum bit rate: 4 669 Kbps\nWidth: 720 pixels\nHeight: 304 pixels\nDisplay aspect ratio: 2.35:1\nFrame rate mode: Constant\nFrame rate: 23.976 fps\nColor space: YUV\nChroma subsampling: 4:2:0\nBit depth: 8 bits\nScan type: Progressive\nBits/(Pixel*Frame): 0.271\nStream size: 1.09 GiB (88%)\n\n\n::Audio::\n\n\nID: 2\nFormat: AC-3\nFormat/Info: Audio Coding 3\nMode extension: CM (complete main)\nCodec ID: ac-3\nDuration: 1h 49mn\nBit rate mode: Constant\nBit rate: 192 Kbps\nChannel(s): 2 channels\nChannel positions: Front: L R\nSampling rate: 48.0 KHz\nBit depth: 16 bits\nStream size: 151 MiB (12%)\nTitle: ac3#trackID=&lt;a class=&quot;__cf_email__&quot; href=&quot;/cdn-cgi/l/email-protection&quot; data-cfemail=&quot;deef9e998e9f9deef0ebf0eff39a9b88f3acbba8eaece6ed&quot;&gt;[email&amp;#160;protected]&lt;/a&gt;&lt;script cf-hash='f9e31' type=&quot;text/javascript&quot;&gt;\n/* &lt;![CDATA[ */!function(){try{var t=&quot;currentScript&quot;in document?document.currentScript:function(){for(var t=document.getElementsByTagName(&quot;script&quot;),e=t.length;e--;)if(t[e].getAttribute(&quot;cf-hash&quot;))return t[e]}();if(t&amp;&amp;t.previousSibling){var e,r,n,i,c=t.previousSibling,a=c.getAttribute(&quot;data-cfemail&quot;);if(a){for(e=&quot;&quot;,r=parseInt(a.substr(0,2),16),n=2;a.length-n;n+=2)i=parseInt(a.substr(n,2),16)^r,e+=String.fromCharCode(i);e=document.createTextNode(e),c.parentNode.replaceChild(e,c)}}}catch(u){}}();/* ]]&gt; */&lt;/script&gt;\nEncoded date: UTC 2013-07-07 10:39:55\nTagged date: UTC 2013-07-07 10:40:21\n\n\n::Workdone::\n\n\nWe got theses files from a friend..So thank them, as well as us for this release. Source was very nice... Had some movements in 2 place that we saw. The very beginning which we fix by rotating and cutting and the other was a very very \nsmall movement which you will probably wont even notice. Did the usual TLC and \nsync a friend's line to our release       \n\n\n::THC JOKE::\n\n\nQ: How do you know when you have smoked enough pot ?\nA: When you start looking around for the directions on how to use the lighter.\n\n\n::Poster::\n\n &lt;a href=&quot;\nhttp://i.imgur.com/jEDk3Ln.jpg&quot; rel=&quot;nofollow&quot; target=&quot;_NEW&quot;&gt;\nhttp://i.imgur.com/jEDk3Ln.jpg&lt;/a&gt;\n\n\n::Screenshots::\n\n &lt;a href=&quot;\nhttp://i.imgur.com/PITtYSW.jpg&quot; rel=&quot;nofollow&quot; target=&quot;_NEW&quot;&gt;\nhttp://i.imgur.com/PITtYSW.jpg&lt;/a&gt;\n\n\nSEED AND ENJOY!","torrent":{"xt":"urn:btih:2ad7fe574257e308784b9870d06dd94f88488dd3","amp;dn":"The+Heat+2013+TS+x264-THC","amp;tr":["udp%3A%2F%2Ftracker.openbittorrent.com%3A80","udp%3A%2F%2Fopen.demonii.com%3A1337","udp%3A%2F%2Ftracker.coppersurfer.tk%3A6969","udp%3A%2F%2Fexodus.desync.com%3A6969"],"infoHash":"2ad7fe574257e308784b9870d06dd94f88488dd3","infoHashBuffer":{"type":"Buffer","data":[42,215,254,87,66,87,227,8,120,75,152,112,208,109,217,79,136,72,141,211]},"announce":[],"urlList":[]}}